# xmcd
#
# Track frame offsets:
#	150
#	15750
#	31144
#	47116
#	60664
#	79972
#	94010
#	108839
#	124233
#	139613
#	152990
#	166405
#	182002
#	200680
#	217923
#	232981
#	241086
#	254602
#	268484
#	283116
#
# Disc length: 3997 seconds
#
# Revision: 0
# Processed by: cddbd v1.5.2PL0 Copyright (c) Steve Scherf et al.
# Submitted via: EasyCDDAExtractor 12.0.2.1
#
DISCID=160f9b14
DTITLE=Various Artist - Die Volkstümliche Hitparade
DYEAR=2009
DGENRE=Volksmusik
TTITLE0=Patrick Lindner - Das Leben ist doch zum Leben da
TTITLE1=Ulla Norden and Michel van Dam  - Das Flüstern des Windes
TTITLE2=Stefan Mross - No, no te Quiero
TTITLE3=Sheila - Steh zu dir
TTITLE4=Peter Sebastian  - Wenn der Tag was von dir will
TTITLE5=Nicole-Dyane - Was hast du aus mir geamcht
TTITLE6=Münchener Zwietracht - Für kein Geld der Welt
TTITLE7=Die Zillertaler - Im Sommer geht's ma guat
TTITLE8=Judith and Mel - Liebe gibt, Liebe nimmt
TTITLE9=Steffi and Bert  - Es gibt keine Sünde im Paradies
TTITLE10=Sarah Jane - Bleib doch bei mir
TTITLE11=Romeos Erben - Herzen teilen kann man nicht
TTITLE12=Larissa Strogoff - Tanz auf dem Vulkan
TTITLE13=Sebastian Siegel - Einsamkeit kennt Deinen Namen
TTITLE14=Stefan Dietl - Ein Engel
TTITLE15=Margot Hellwig - Kein schöner Land
TTITLE16=Fiete Münzner - Mit vollen Segeln in die Zukunft
TTITLE17=Die Bergkameraden and Oswald Sattler - Ich träume von der Heimat
TTITLE18=Mühlenhof Musikanten - Es ist cool, verliebt zu sein
TTITLE19=C. C. Tennissen - So schöne Jahre - Der Grund bist du
EXTD=
EXTT0=
EXTT1=
EXTT2=
EXTT3=
EXTT4=
EXTT5=
EXTT6=
EXTT7=
EXTT8=
EXTT9=
EXTT10=
EXTT11=
EXTT12=
EXTT13=
EXTT14=
EXTT15=
EXTT16=
EXTT17=
EXTT18=
EXTT19=
PLAYORDER=
